<svg width="22" height="20" viewBox="0 0 22 20" fill="none" xmlns="http://www.w3.org/2000/svg">
<path d="M14.1104 9.34074C14.7716 9.54397 15.4822 9.57434 16.1615 9.42843C16.8407 9.28252 17.4613 8.96617 17.9529 8.51531L21.8565 4.96279C21.9511 4.8702 22.0025 4.74784 21.9999 4.62146C21.9974 4.49507 21.9411 4.37451 21.8429 4.28513C21.7446 4.19575 21.6122 4.14451 21.4733 4.1422C21.3344 4.13988 21.2 4.18667 21.0982 4.27272L17.6846 7.3793L16.1672 5.99832L19.5808 2.89174C19.6753 2.79914 19.7267 2.67678 19.7242 2.5504C19.7216 2.42402 19.6653 2.30345 19.5671 2.21407C19.4689 2.12469 19.3364 2.07345 19.1975 2.07114C19.0587 2.06883 18.9242 2.11562 18.8225 2.20167L15.4089 5.30825L13.8914 3.92727L17.305 0.820677C17.3996 0.728082 17.451 0.605726 17.4485 0.479342C17.4459 0.352958 17.3896 0.232395 17.2914 0.143012C17.1932 0.0536301 17.0607 0.00239644 16.9218 8.19478e-05C16.783 -0.00223255 16.6485 0.0445576 16.5468 0.130607L12.6432 3.68312C12.1482 4.13074 11.8009 4.69556 11.6406 5.31361C11.4803 5.93165 11.5134 6.5782 11.7361 7.18L11.758 7.2373L11.0408 7.85015L9.60002 6.62113L9.621 6.56383C9.84396 5.96192 9.87716 5.3152 9.71685 4.69699C9.55654 4.07878 9.20914 3.51382 8.71401 3.06613L7.08613 1.58467C6.38189 0.943772 5.42675 0.583714 4.43081 0.583714C3.43487 0.583714 2.47972 0.943772 1.77548 1.58467C1.07125 2.22557 0.675607 3.0948 0.675607 4.00117C0.675607 4.90754 1.07125 5.77678 1.77548 6.41768L3.40335 7.89914C3.89511 8.34998 4.51592 8.66633 5.19529 8.81223C5.87466 8.95814 6.58537 8.92777 7.24673 8.72457L7.3097 8.70548L8.58717 9.94362L0.659512 16.7206C0.449125 16.901 0.281953 17.119 0.168476 17.361C0.0549985 17.6029 -0.00232644 17.8636 7.22853e-05 18.1266C0.00247101 18.3897 0.0645532 18.6494 0.182427 18.8896C0.3003 19.1298 0.471414 19.3453 0.685061 19.5225C1.06256 19.8329 1.55418 20.0032 2.06292 20C2.36694 19.9991 2.66755 19.9417 2.94626 19.8312C3.22497 19.7206 3.47587 19.5593 3.68349 19.3572L10.9943 12.2746L17.7312 18.8008C17.9274 18.9906 18.1642 19.1419 18.427 19.2453C18.6899 19.3487 18.9732 19.402 19.2596 19.4021H19.276C19.5652 19.3995 19.8508 19.3427 20.1148 19.2352C20.3789 19.1278 20.6158 18.972 20.8108 18.7776C21.1776 18.391 21.3639 17.8892 21.3298 17.3794C21.2957 16.8696 21.0439 16.3921 20.6283 16.0488L13.4397 9.90376L14.0429 9.32247L14.1104 9.34074ZM2.90513 18.6904C2.71925 18.8801 2.46035 18.9976 2.18198 19.0184C1.90361 19.0393 1.62707 18.962 1.40958 18.8025C1.30503 18.7161 1.22128 18.6109 1.16357 18.4935C1.10585 18.3762 1.07543 18.2493 1.07423 18.1208C1.07303 17.9922 1.10108 17.8649 1.15659 17.7467C1.2121 17.6285 1.29388 17.522 1.3968 17.434L9.32445 10.6561L10.2616 11.5638L2.90513 18.6904ZM20.0188 18.1215C19.9241 18.2171 19.8086 18.2937 19.6796 18.3463C19.5506 18.3989 19.411 18.4265 19.2696 18.4271C19.1287 18.4268 18.9893 18.4006 18.8598 18.3501C18.7303 18.2996 18.6133 18.2258 18.5159 18.1332L7.85718 7.80945C7.78694 7.74143 7.69676 7.69315 7.5973 7.67033C7.49784 7.64752 7.39328 7.65113 7.29601 7.68074L6.90728 7.79866C6.43489 7.94371 5.92726 7.96528 5.44207 7.86091C4.95688 7.75654 4.51358 7.53041 4.16254 7.20823L2.53467 5.72677C2.03166 5.26901 1.74907 4.64815 1.74907 4.00076C1.74907 3.35338 2.03166 2.73251 2.53467 2.27474C3.03768 1.81697 3.7199 1.5598 4.43126 1.5598C5.14262 1.5598 5.82485 1.81697 6.32786 2.27474L7.95573 3.7562C8.30958 4.07594 8.55786 4.47956 8.67238 4.92123C8.78689 5.36291 8.76306 5.82495 8.60359 6.25492L8.47402 6.60867C8.44168 6.69715 8.43789 6.79221 8.46312 6.88258C8.48835 6.97296 8.54153 7.05485 8.61636 7.11855L12.3174 10.2824L19.891 16.7597C20.0993 16.9288 20.2282 17.1643 20.2509 17.4175C20.2737 17.6707 20.1886 17.9222 20.0133 18.1199L20.0188 18.1215ZM13.5 8.4248L12.6623 9.23694L11.8228 8.51947L12.7408 7.73472C12.8154 7.6709 12.8685 7.58901 12.8937 7.49868C12.9189 7.40835 12.9153 7.31334 12.8831 7.22484L12.7536 6.87025C12.6151 6.49615 12.579 6.09696 12.6483 5.70729C12.7177 5.31761 12.8903 4.9492 13.1514 4.63395L16.9072 8.05194C16.5612 8.28998 16.1566 8.44748 15.7285 8.51072C15.3003 8.57397 14.8617 8.54105 14.4508 8.41483L14.0621 8.29691C13.9648 8.2672 13.8602 8.26354 13.7607 8.28635C13.6613 8.30917 13.5711 8.35751 13.5009 8.42562L13.5 8.4248Z" fill="#8B8B8B"/>
</svg>
